<svg width="1080" height="1080" viewBox="0 0 1080 1080" xmlns="http://www.w3.org/2000/svg">
  <defs>
    <linearGradient id="g" x1="0" y1="0" x2="1" y2="1">
      <stop offset="0" stop-color="#6179ff"/>
      <stop offset="1" stop-color="#00c1c6"/>
    </linearGradient>
  </defs>
  <rect width="1080" height="1080" fill="url(#g)"/>
  <rect x="360" y="170" width="360" height="360" rx="84" fill="#ffffff"/>
  <g transform="translate(410,220) scale(3.25)">
    <path d="M57.9961 34.3068V30.6125V22.3028L45.9921 17.9529V29.9568L33.9881 25.6069V37.6109L45.9921 41.9608V53.9648L57.9961 58.3147V46.3107L70 50.6607V38.655L57.9961 34.3068Z" fill="#00C1C6"/>
    <path d="M34.0079 37.5954V25.5915L22.004 21.2415V28.8955V33.2455L10 28.8955V40.8995L22.004 45.2512V57.2534L34.0079 61.6033V49.6011L46.0119 53.9493V41.9454L34.0079 37.5954Z" fill="#4830F2"/>
  </g>
  <text x="540" y="660" font-family="-apple-system, Helvetica, sans-serif" font-size="92"
        font-weight="800" fill="#ffffff" text-anchor="middle">Huray Token Export</text>
  <text x="540" y="744" font-family="-apple-system, Helvetica, sans-serif" font-size="40"
        font-weight="500" fill="#eaf0ff" text-anchor="middle">Figma variables, typography &amp; shadows → tokens.json</text>
  <text x="540" y="804" font-family="-apple-system, Helvetica, sans-serif" font-size="40"
        font-weight="500" fill="#eaf0ff" text-anchor="middle">→ GitHub Pull Request</text>
</svg>
