<svg width="80" height="80" viewBox="0 0 80 80" fill="none" xmlns="http://www.w3.org/2000/svg">
<rect width="80" height="80" fill="#A4A4B6"/>
<g id="Logo">
<path d="M-100 -216C-100 -229.255 -89.2548 -240 -76 -240H596C609.255 -240 620 -229.255 620 -216V413C620 426.255 609.255 437 596 437H-76C-89.2548 437 -100 426.255 -100 413V-216Z" fill="white"/>
<g id="img_symbol">
<g id="Symbol">
<path id="path11" d="M57.9961 34.3068V30.6125V22.3028L45.9921 17.9529V29.9568L33.9881 25.6069V37.6109L45.9921 41.9608V53.9648L57.9961 58.3147V46.3107L70 50.6607V38.655L57.9961 34.3068Z" fill="#00C1C6"/>
<path id="path13" d="M34.0079 37.5954V25.5915L22.004 21.2415V28.8955V33.2455L10 28.8955V40.8995L22.004 45.2512V57.2534L34.0079 61.6033V49.6011L46.0119 53.9493V41.9454L34.0079 37.5954Z" fill="#4830F2"/>
</g>
</g>
</g>
</svg>
